<svg xmlns="http://www.w3.org/2000/svg" height="615pt" version="1.1" viewBox="0 -35 615.08016 615" width="615pt">
<g id="surface1">
<path d="M 9.917969 525.785156 L 9.917969 148.851562 L 148.789062 9.980469 L 307.5 129.011719 L 466.210938 9.980469 L 605.082031 148.851562 L 605.082031 535.707031 L 466.210938 396.835938 L 307.5 535.707031 L 148.789062 396.835938 Z M 9.917969 525.785156 " style=" stroke:none;fill-rule:nonzero;fill:rgb(100%,93.72549%,67.843137%);fill-opacity:1;" />
<path d="M 296.28125 248.242188 C 224.871094 249.332031 168.628906 262.128906 168.628906 277.804688 C 168.628906 294.269531 230.824219 307.5625 307.5 307.5625 C 384.175781 307.5625 446.371094 294.269531 446.371094 277.804688 C 446.371094 262.128906 390.128906 249.335938 318.71875 248.242188 C 311.953125 260.304688 307.5 267.882812 307.5 267.882812 C 307.5 267.882812 303.046875 260.304688 296.28125 248.242188 Z M 296.28125 248.242188 " style=" stroke:none;fill-rule:nonzero;fill:rgb(87.058824%,86.666667%,87.843137%);fill-opacity:1;" />
<path d="M 307.5 9.980469 C 263.695312 10.03125 228.195312 45.527344 228.144531 89.335938 C 228.144531 122.753906 274.410156 209.230469 296.28125 248.242188 C 303.046875 260.304688 307.5 267.882812 307.5 267.882812 C 307.5 267.882812 311.953125 260.304688 318.71875 248.242188 C 340.589844 209.230469 386.855469 122.753906 386.855469 89.335938 C 386.804688 45.527344 351.304688 10.03125 307.5 9.980469 Z M 307.5 129.011719 C 285.585938 129.011719 267.824219 111.25 267.824219 89.335938 C 267.824219 67.421875 285.585938 49.65625 307.5 49.65625 C 329.414062 49.65625 347.179688 67.421875 347.179688 89.335938 C 347.179688 111.25 329.414062 129.011719 307.5 129.011719 Z M 307.5 129.011719 " style=" stroke:none;fill-rule:nonzero;fill:rgb(87.843137%,20%,32.156863%);fill-opacity:1;" />
<path d="M 347.179688 89.335938 C 347.179688 111.25 329.414062 129.011719 307.5 129.011719 C 285.585938 129.011719 267.824219 111.25 267.824219 89.335938 C 267.824219 67.421875 285.585938 49.65625 307.5 49.65625 C 329.414062 49.65625 347.179688 67.421875 347.179688 89.335938 Z M 347.179688 89.335938 " style=" stroke:none;fill-rule:nonzero;fill:rgb(20%,54.117647%,95.294118%);fill-opacity:1;" />
<path d="M 612.09375 141.839844 L 473.222656 2.96875 C 469.53125 -0.722656 463.613281 -0.921875 459.683594 2.511719 L 392.230469 61.480469 C 376.894531 14.671875 326.507812 -10.84375 279.699219 4.492188 C 252.714844 13.335938 231.550781 34.496094 222.710938 61.480469 L 155.257812 2.511719 C 151.328125 -0.921875 145.410156 -0.722656 141.71875 2.96875 L 2.847656 141.839844 C 1.007812 143.707031 -0.015625 146.230469 0 148.851562 L 0 535.707031 C 0 541.183594 4.445312 545.625 9.921875 545.625 C 12.550781 545.621094 15.074219 544.578125 16.933594 542.71875 L 149.238281 410.414062 L 301.003906 543.164062 C 304.746094 546.445312 310.335938 546.445312 314.078125 543.164062 L 465.84375 410.414062 L 598.066406 542.71875 C 601.941406 546.59375 608.222656 546.589844 612.09375 542.714844 C 613.953125 540.855469 615 538.335938 615 535.707031 L 615 148.851562 C 615 146.222656 613.953125 143.699219 612.09375 141.839844 Z M 307.5 19.898438 C 345.832031 19.945312 376.890625 51.003906 376.933594 89.335938 C 376.933594 119.191406 332.644531 203.605469 307.5 248.042969 C 282.355469 203.625 238.066406 119.210938 238.066406 89.335938 C 238.109375 51.003906 269.171875 19.945312 307.5 19.898438 Z M 298.949219 272.914062 C 301.726562 277.636719 307.804688 279.210938 312.527344 276.433594 C 313.980469 275.582031 315.195312 274.367188 316.050781 272.914062 C 317.378906 270.652344 320.382812 265.503906 324.480469 258.3125 C 390.644531 259.9375 428.097656 271.207031 435.578125 277.8125 C 426.96875 285.53125 380.863281 297.652344 307.449219 297.652344 C 234.035156 297.652344 187.933594 285.539062 179.320312 277.8125 C 186.851562 271.1875 224.304688 259.957031 290.46875 258.3125 C 294.605469 265.503906 297.582031 270.652344 298.949219 272.914062 Z M 595.160156 511.761719 L 473.222656 389.820312 C 469.527344 386.128906 463.601562 385.933594 459.671875 389.375 L 307.5 522.523438 L 155.328125 389.375 C 151.398438 385.933594 145.472656 386.128906 141.777344 389.820312 L 19.839844 511.761719 L 19.839844 152.957031 L 149.246094 23.558594 L 218.492188 84.128906 C 218.382812 85.851562 218.226562 87.578125 218.226562 89.335938 C 218.226562 121.722656 255.503906 194.867188 279.636719 238.828125 C 240.445312 240.542969 158.710938 247.738281 158.710938 277.800781 C 158.710938 316.367188 292.273438 317.480469 307.5 317.480469 C 322.726562 317.480469 456.292969 316.367188 456.292969 277.800781 C 456.292969 247.738281 374.554688 240.542969 335.367188 238.828125 C 359.5 194.867188 396.777344 121.722656 396.777344 89.335938 C 396.777344 87.578125 396.617188 85.851562 396.507812 84.128906 L 465.753906 23.558594 L 595.164062 152.957031 L 595.164062 511.761719 Z M 595.160156 511.761719 " style=" stroke:none;fill-rule:nonzero;fill:rgb(13.72549%,12.156863%,12.54902%);fill-opacity:1;" />
<path d="M 357.097656 89.335938 C 357.097656 61.945312 334.890625 39.738281 307.5 39.738281 C 280.109375 39.738281 257.902344 61.945312 257.902344 89.335938 C 257.902344 116.726562 280.109375 138.933594 307.5 138.933594 C 334.878906 138.898438 357.0625 116.710938 357.097656 89.335938 Z M 277.742188 89.335938 C 277.742188 72.902344 291.066406 59.578125 307.5 59.578125 C 323.933594 59.578125 337.257812 72.902344 337.257812 89.335938 C 337.257812 105.769531 323.933594 119.09375 307.5 119.09375 C 291.066406 119.09375 277.742188 105.769531 277.742188 89.335938 Z M 277.742188 89.335938 " style=" stroke:none;fill-rule:nonzero;fill:rgb(13.72549%,12.156863%,12.54902%);fill-opacity:1;" />
</g>
</svg>